PathFileType	4	(X/Y/Z)	C:\Users\°ÂÌØÂü\Desktop\20210112\bx_n_5_502-Unnamed.trc
DataRate	CameraRate	NumFrames	NumMarkers	Units	OrigDataRate	OrigDataStartFrame	OrigNumFrames
50.00	50.00	       4	0	mm	50.00	123	       489
Frame#	Time	
		

123	2.440	-355.60901	284.22675	1163.92151	-745.04132	245.38890	1008.49860	-749.91425	2.85893	987.83636	-848.15314	297.97250	867.20892	-736.54846	6.42237	809.45337	-335.51965	-38.26249	1169.79358	-828.74902	288.89905	730.70770	-836.50793	262.74759	628.74310	-785.13391	80.25082	570.08246	-741.55609	23.25855	528.15936	-823.11493	256.99561	565.41357	-762.30890	212.86987	537.66187	-741.28406	229.06802	791.84729	-721.70642	158.99826	223.98077	-772.18591	232.89697	203.03250	-882.57037	296.17642	144.82063	-675.34210	51.88631	161.58484	-677.17700	175.29553	163.66475	-594.23053	217.10854	173.02774	-658.94812	297.69073	157.62927	-622.42181	305.03552	158.46292	-557.85120	253.00455	163.17651	-527.97644	303.99091	146.36427	-134.10774	141.61455	1357.57751				-845.08124	269.35181	486.23587	-517.88947	-72.94445	143.28894	-549.02203	-21.39980	161.75372				-913.61560	103.76369	1102.98401	-794.54840	33.04324	174.25514	-799.29449	184.10944	182.92960	-822.04486	-45.34334	479.50241	-600.94751	30.60067	164.94926	-761.03979	-24.51860	206.65364	-875.87097	-78.64214	141.18979				-799.09973	-27.97771	565.33496	-604.39203	-71.57922	157.57121	-646.28693	-66.03601	162.96886	-818.41888	-55.83997	750.99908				-791.40326	152.11986	571.87372	-728.11462	66.71832	219.70506	-824.66486	-65.46519	865.72223	-802.90149	-29.39017	613.19855	
124	2.460	-356.65118	283.93933	1164.91858	-745.94116	246.34627	1008.66083	-751.18719	2.50003	987.66125	-849.48340	297.91852	866.87024	-737.00061	6.60126	809.27881	-337.00436	-37.89627	1169.76355	-830.24365	288.79865	730.79163	-837.54089	263.10269	628.63049	-785.30859	80.76363	570.15753	-741.92719	23.49718	528.24213	-824.17969	257.12158	565.14136	-763.02063	213.16364	538.49811	-741.95081	229.46045	792.07135	-721.70685	159.17424	224.28534	-772.13660	232.96797	203.06609	-882.51331	296.19043	144.83958	-675.37329	51.99705	161.47600	-677.32581	175.35760	163.49657	-594.33966	217.16002	172.64700	-658.94812	297.69073	157.62927	-622.67395	305.09451	158.87743	-557.90259	252.95502	162.96002	-528.00940	304.13284	146.40735	-136.29291	141.17236	1359.30859				-845.61804	269.23660	486.46255	-517.92816	-73.07974	143.24254	-548.66608	-21.30235	161.74422				-915.44952	103.78455	1102.56641	-794.47736	33.28839	174.34802	-799.36011	184.24864	182.94942	-822.11804	-45.07487	479.50272	-600.78717	30.92544	165.20528	-761.06995	-24.45647	206.90999	-875.80023	-78.62018	141.04199				-798.98383	-27.89322	565.61530	-604.39203	-71.57922	157.57121	-646.21997	-66.01938	163.05179	-818.91217	-55.78988	751.15326				-791.69965	152.10654	572.19952	-727.88568	66.84241	219.51309	-825.71222	-64.99579	865.55347	-802.99451	-28.94522	612.85632	
125	2.480	-357.05289	283.93433	1165.66394	-747.18756	246.10284	1008.46649	-752.19769	2.05732	987.85681	-850.36731	297.91589	866.95135	-738.07996	6.99829	809.40295	-338.04971	-37.93521	1170.21301	-831.18140	288.99878	730.68237	-838.21021	263.16513	628.50354	-785.78821	81.28343	570.25134	-742.47638	23.55434	528.13147	-824.96405	257.41403	565.50183	-764.25531	213.18834	538.23041	-743.22461	229.56454	791.79828	-721.94171	158.94203	224.49599	-771.99365	232.94441	203.16980	-882.65283	296.16312	144.79024	-675.32758	52.10737	161.24651	-677.33179	175.48640	163.67726	-594.40424	217.18135	172.89018	-658.94812	297.69073	157.62927	-622.55267	305.23706	158.75220	-558.01379	253.37889	163.12106	-528.00525	304.36252	146.45308	-138.64323	140.78880	1361.48389				-846.15051	269.12421	486.27036	-517.82178	-72.86458	143.26329	-548.54669	-21.16969	161.95065				-916.40918	103.68171	1102.49121	-794.33789	33.55037	174.41002	-799.17731	184.19162	183.16309	-822.25690	-44.54371	479.12027	-600.78717	30.92544	165.20528	-760.69336	-24.29567	207.09521	-875.89813	-78.59131	141.24451				-799.54333	-27.62499	565.66492	-604.30865	-71.30893	157.62973	-646.00177	-65.92168	163.26245	-819.47070	-55.58945	751.21344				-792.36963	151.83710	572.27246	-727.64850	66.62534	219.08670	-826.28046	-64.16555	865.70227	-803.22119	-28.83464	613.18127	
126	2.500	-358.00351	283.95126	1166.46570	-748.04858	246.17436	1008.53815	-752.75153	2.19552	987.79401	-851.49036	297.70828	866.51996	-738.66406	7.18144	809.57880	-340.06522	-37.40912	1170.25171	-832.08899	289.28882	730.73315	-838.87463	263.00323	628.58240				-742.73596	23.72989	528.42200	-825.40613	257.20245	565.68878	-764.61865	213.23331	538.36121	-743.64282	229.89952	791.89557	-721.94171	158.94203	224.49599	-771.96167	232.81032	203.30644	-882.61194	296.22366	144.85307	-675.27374	51.90464	161.40681	-677.37360	175.55991	163.76050	-594.18274	217.28932	172.93701	-658.94812	297.69073	157.62927	-622.53333	305.20850	158.44305	-557.65118	253.21422	163.29410	-528.03546	304.13049	146.49330	-140.50038	140.61404	1363.26123	-785.61139	81.82856	570.48669	-846.37964	269.38382	486.11456	-517.72400	-72.87927	143.30774	-548.67438	-21.25011	162.09055				-917.24988	103.83135	1102.30981	-794.18829	33.71822	174.44957	-799.11890	184.25513	183.25368	-822.47540	-44.32774	479.08780	-600.78931	30.84449	165.02248	-760.46997	-23.98432	206.98491	-875.88751	-78.54328	141.29303				-800.40472	-27.15788	565.73004	-604.28052	-71.34968	157.53146	-645.99390	-65.69656	163.22125	-820.21155	-55.03059	751.39825				-792.93457	151.92493	572.82434	-727.48425	66.93054	219.01645	-827.09375	-63.97154	866.22839	-803.71899	-28.55554	613.28357	
